<svg xmlns="http://www.w3.org/2000/svg" viewBox="0 0 338.44 203.16"><defs><style>.cls-1{fill:#f7921c;stroke:#609;}.cls-1,.cls-2,.cls-4,.cls-5{stroke-miterlimit:10;}.cls-1,.cls-2{stroke-width:0.5px;}.cls-2,.cls-3,.cls-5{fill:#609;}.cls-2,.cls-5{stroke:#f7921c;}.cls-3,.cls-4{font-size:53px;font-family:Iceland-Regular, Iceland;letter-spacing:0.18em;}.cls-4{fill:#1abcdc;stroke:#000;stroke-width:0.25px;}.cls-5{font-size:37px;stroke-width:0.35px;font-family:StoneAgeBT-Regular, StoneAge BT;}.cls-6{fill:none;}</style></defs><title>Isale Homestore</title><g id="Layer_2" data-name="Layer 2"><g id="Layer_1-2" data-name="Layer 1"><path class="cls-1" d="M139.62,72.41a29.34,29.34,0,0,0-2.19,2c-2.5,2.35-4.62,6.84-7.47,6.56a3.23,3.23,0,0,1-.84-.21q-.1-6.18-.11-14.53c0-3.06,0-5.79.07-8.21l.18.17c3.5,3.31,6.8,6.85,10.28,10.19C141,69.8,141.52,71,139.62,72.41Z"/><path class="cls-1" d="M338.19,118.77v40.16H14V141a10.08,10.08,0,0,1-.14-2c.24-18.37.1-36.74.09-55.11V80.17c-2.29,1.91-3.61,1.21-5.12-.46a94.91,94.91,0,0,0-7.35-7.39C-.36,70.69,0,69.8,1.6,68.22Q35,35,68.19,1.66c1.74-1.75,2.64-2,4.58,0C82,11.08,91.34,20.4,100.68,29.72a9.36,9.36,0,0,0-1.61,1A5.27,5.27,0,0,0,97,35.08,5.56,5.56,0,0,0,97.68,38a13.25,13.25,0,0,0,2.77,2.88,9.06,9.06,0,0,1,3.38,4.73q.87,3,1.16,11.11c-6-6-12-12-18.14-17.79-5-4.75-9.77-9.8-14.45-14.9-1.57-1.71-2.13-1.48-3.67.07-13,13-26.1,25.88-39.15,38.8a9.33,9.33,0,0,0-3.09,7.22c.19,15.12.24,30.25,0,45.36a6.18,6.18,0,0,0,.57,3.27Z"/><path id="door" class="cls-2" d="M62.21,91.19c0,6.49-.06,13,0,19.47,0,1.91-.51,2.66-2.52,2.62q-7.86-.15-15.73,0c-1.89,0-2.63-.51-2.62-2.54q.1-20,0-40.07c0-1.94.58-2.66,2.54-2.63,5.24.08,10.49.11,15.73,0,2.26,0,2.65,1,2.62,2.93C62.16,77.7,62.21,84.44,62.21,91.19Z"/><text class="cls-3" transform="translate(23.75 150.73)">Homestore</text><text class="cls-4" transform="translate(20.96 150.73)">Homestore</text><text class="cls-5" transform="translate(18.41 192.45) scale(0.57 0.91)">the Online shop your home needs</text><g id="windows"><rect class="cls-6" x="69.75" y="66.92" width="10.41" height="10.41" rx="2.94"/><rect class="cls-6" x="82.51" y="66.52" width="10.41" height="10.41" rx="2.94"/><rect class="cls-6" x="69.75" y="79.44" width="10.41" height="10.41" rx="2.94"/><rect class="cls-6" x="82.51" y="79.03" width="10.41" height="10.41" rx="2.94"/><rect class="cls-2" x="69.75" y="66.92" width="10.41" height="10.41" rx="2.94"/><rect class="cls-2" x="82.51" y="66.52" width="10.41" height="10.41" rx="2.94"/><rect class="cls-2" x="69.75" y="79.44" width="10.41" height="10.41" rx="2.94"/><rect class="cls-2" x="82.51" y="79.03" width="10.41" height="10.41" rx="2.94"/><rect class="cls-6" x="69.75" y="66.92" width="10.41" height="10.41" rx="2.94"/><rect class="cls-6" x="82.51" y="66.52" width="10.41" height="10.41" rx="2.94"/><rect class="cls-6" x="69.75" y="79.44" width="10.41" height="10.41" rx="2.94"/><rect class="cls-6" x="82.51" y="79.03" width="10.41" height="10.41" rx="2.94"/></g><path class="cls-1" d="M136.93,107q0,5.12-6.16,7a56.21,56.21,0,0,1-16.29,2Q98,116.1,98,108.17q0-2.88,3.23-5.37a7.7,7.7,0,0,0,2.93-5.25q1-7.29,1-30.95,0-5.62-.15-9.86-.3-8.09-1.16-11.11a9.06,9.06,0,0,0-3.38-4.73A13.25,13.25,0,0,1,97.68,38,5.56,5.56,0,0,1,97,35.08a5.27,5.27,0,0,1,2.1-4.38,9.36,9.36,0,0,1,1.61-1h0a28.14,28.14,0,0,1,5.77-1.93,51.94,51.94,0,0,1,12.76-1.6,44.48,44.48,0,0,1,10.84,1.28q6.87,1.73,6.87,7.35a4.66,4.66,0,0,1-.69,2.79,14.81,14.81,0,0,1-3.45,2.71q-2.32,1.49-3,6.46A103.58,103.58,0,0,0,129.08,58c-.05,2.42-.07,5.15-.07,8.21q0,8.36.11,14.53A136.4,136.4,0,0,0,130,96.47a7,7,0,0,0,1.09,2.84,9.46,9.46,0,0,0,2.55,2.14A6.09,6.09,0,0,1,136.93,107Z"/><path class="cls-1" d="M160.9,67.48a35.27,35.27,0,0,1,9.46,1.73,4.16,4.16,0,0,0,1.12.21,11.29,11.29,0,0,0,2.11-.61,3.35,3.35,0,0,1,1.19-.21q2.34,0,5,3.59A11.81,11.81,0,0,1,182.35,79a4.63,4.63,0,0,1-1.18,3.2,3.69,3.69,0,0,1-2.85,1.31A4.27,4.27,0,0,1,176,83a38.2,38.2,0,0,1-3.86-3.22Q168,76,163.91,76a5,5,0,0,0-3.13.91,2.92,2.92,0,0,0-1.17,2.41c0,2,1.78,3.44,5.36,4.44a81.61,81.61,0,0,1,9.28,3q8.94,4.21,8.94,12.37a14.13,14.13,0,0,1-6.1,11.79q-6.24,4.68-16.29,4.68a46.46,46.46,0,0,1-9.46-1,22.72,22.72,0,0,1-7.19-2.42c-1.12-.72-2.13-2.3-3-4.72a20.39,20.39,0,0,1-1.35-7.1,3.89,3.89,0,0,1,.7-2.51,2.74,2.74,0,0,1,2.21-1.08,3.52,3.52,0,0,1,2.56,1.32,48.81,48.81,0,0,1,3.47,4.77,9.43,9.43,0,0,0,4.11,3.16,14.33,14.33,0,0,0,5.84,1.25,8.32,8.32,0,0,0,4.2-.93,2.74,2.74,0,0,0,1.62-2.39,2.9,2.9,0,0,0-1.27-2.34,13.08,13.08,0,0,0-4.1-1.83A57.23,57.23,0,0,1,151.48,97a23.05,23.05,0,0,1-4.91-3.21Q141,89,141,83a12.64,12.64,0,0,1,1.44-5.81,14.63,14.63,0,0,1,4.06-4.9A22.12,22.12,0,0,1,160.9,67.48Z"/><path class="cls-1" d="M230.11,91.27,236.73,105a9.19,9.19,0,0,0,1.58,2.49,3.56,3.56,0,0,0,1.92.8c1.68.25,2.53,1.07,2.53,2.47q0,2.48-3.09,3.56c-2,.72-5.42,1.08-10.09,1.08a77.47,77.47,0,0,1-11.74-.64,5.3,5.3,0,0,1-2.78-1.24,2.92,2.92,0,0,1-1-2.25,2.12,2.12,0,0,1,.55-1.57,5,5,0,0,1,2-1q1.65-.54,1.65-1.83c0-1.51-.95-2.4-2.84-2.67a67.36,67.36,0,0,0-8.59-.41q-4.65,0-5.57.54a2.79,2.79,0,0,0-1,1.22,3.94,3.94,0,0,0-.42,1.7,1.17,1.17,0,0,0,.3,1,9.47,9.47,0,0,0,1.94.73c1.43.41,2.14,1.22,2.14,2.44q0,4-10,4a34.06,34.06,0,0,1-8.33-.74,3,3,0,0,1-2.46-3.12,2.27,2.27,0,0,1,.55-1.63,4.94,4.94,0,0,1,1.94-1.05,7.58,7.58,0,0,0,3.45-2.18,33.24,33.24,0,0,0,3.35-6l4.94-10.47a80.83,80.83,0,0,0,3.66-8.62,18.78,18.78,0,0,0,1-5.61,17.8,17.8,0,0,1,.37-4,5.15,5.15,0,0,1,1.49-2.22,8.45,8.45,0,0,1,6.17-2.37A10.43,10.43,0,0,1,217.07,70Q221.56,73.62,230.11,91.27Zm-24.39,4.27h6.87q1.89,0,1.89-.81,0-1.12-2.63-5.49A17.75,17.75,0,0,0,210,86.56a1.84,1.84,0,0,0-1.33-.68c-.84,0-1.55.76-2.11,2.27-.09.21-.43,1-1,2.41a18.56,18.56,0,0,0-1.47,4.13C204.11,95.26,204.64,95.54,205.72,95.54Z"/><path class="cls-1" d="M266.69,83.24V98.79q0,5.25.94,6.78c.77,1.2,2.4,1.79,4.87,1.79a10.46,10.46,0,0,0,6.31-1.69,9,9,0,0,0,3.23-5.28c.35-1.47,1.14-2.21,2.38-2.21a3.6,3.6,0,0,1,3,1.61,7,7,0,0,1,1.17,4.19q0,4.2-3.22,9a8.31,8.31,0,0,1-1.79,2.08,3.08,3.08,0,0,1-1.85.56l-7.78-.92h-24.5a7.64,7.64,0,0,1-3.4-.54,2.52,2.52,0,0,1-1.43-2.34,1.88,1.88,0,0,1,.47-1.4,10,10,0,0,1,2.3-1.31,4.43,4.43,0,0,0,2.55-2.57q.47-1.39.46-8.1,0-3.12-.18-9-.17-5.62-.21-8.47a10.64,10.64,0,0,0-.43-3.71,2.76,2.76,0,0,0-1.84-1.44,12.92,12.92,0,0,1-3-1.25,2.41,2.41,0,0,1-1.12-1.93q0-2.48,4.24-3.77a34,34,0,0,1,9.67-1.11,56.15,56.15,0,0,1,10.16.67q4.35.91,4.35,3.66a2.15,2.15,0,0,1-.58,1.66,10.93,10.93,0,0,1-2.82,1.46,2.76,2.76,0,0,0-1.68,2A31.16,31.16,0,0,0,266.69,83.24Z"/><path class="cls-1" d="M296.82,68.43h18c3.65,0,6.3-.07,8-.22a25.85,25.85,0,0,0,4.89-.89,4.54,4.54,0,0,1,1.16-.21,4,4,0,0,1,3.22,1.9,12.08,12.08,0,0,1,2.31,7.45,5.66,5.66,0,0,1-1,3.48,3.14,3.14,0,0,1-2.64,1.27,3,3,0,0,1-1.81-.46,8.79,8.79,0,0,1-1.73-2,7.44,7.44,0,0,0-3.91-3,27.93,27.93,0,0,0-7.76-.76c-2.69,0-4.32.46-4.91,1.38a4.52,4.52,0,0,0-.54,2c-.06.84-.09,3-.09,6.41,0,1.35.24,2.19.7,2.52s1.7.49,3.68.49a3.15,3.15,0,0,0,2.14-.59,3.32,3.32,0,0,0,.84-2.12,13.67,13.67,0,0,1,.51-2.69,2.72,2.72,0,0,1,1-1.27,2.59,2.59,0,0,1,1.72-.61A3,3,0,0,1,323,81.75a9.16,9.16,0,0,1,1.25,3.47,26.67,26.67,0,0,1,.5,5.2,19.64,19.64,0,0,1-1.71,8.78,3.06,3.06,0,0,1-2.88,1.86,1.94,1.94,0,0,1-1.64-.59,5.56,5.56,0,0,1-.7-2.46q-.54-3.83-4.63-3.83a2.3,2.3,0,0,0-2.15,1,7.56,7.56,0,0,0-.58,3.57c0,1.07.07,2.44.22,4.12a20.71,20.71,0,0,0,.48,3.34,2.12,2.12,0,0,0,1.73,1.4,20.5,20.5,0,0,0,4.86.39q5.25,0,7.92-1.3a9.77,9.77,0,0,0,4.34-4.73,8.65,8.65,0,0,1,1.77-2.64,3,3,0,0,1,2.05-.68,3,3,0,0,1,2.43,1.24,4.85,4.85,0,0,1,1,3.1,15.6,15.6,0,0,1-1.09,5.08,24.42,24.42,0,0,1-2.66,5.42,7.18,7.18,0,0,1-1.33,1.55,2.18,2.18,0,0,1-1.33.38,12.38,12.38,0,0,1-1.93-.2,41.82,41.82,0,0,0-6-.51H293.21a4.43,4.43,0,0,1-2.77-.76,2.57,2.57,0,0,1-1-2.15,2,2,0,0,1,.42-1.42,6.82,6.82,0,0,1,1.93-1.12,3.89,3.89,0,0,0,1.56-1.09,4.71,4.71,0,0,0,.79-1.89,65.25,65.25,0,0,0,1.16-13.79q0-13.08-1.69-16.5a2.33,2.33,0,0,0-.77-.95,7.49,7.49,0,0,0-1.75-.65,2.47,2.47,0,0,1-2-2.57,3,3,0,0,1,.67-1.93,3.09,3.09,0,0,1,1.75-1.12A29.5,29.5,0,0,1,296.82,68.43Z"/></g></g></svg>