<svg id="Layer_1" data-name="Layer 1" xmlns="http://www.w3.org/2000/svg" viewBox="0 0 338.19 194"><defs><style>.cls-1{font-size:100.62px;}.cls-1,.cls-2,.cls-4,.cls-64{fill:#f7921c;}.cls-1,.cls-2{stroke:#609;stroke-width:0.5px;font-family:CooperBlack, Cooper Black;}.cls-1,.cls-2,.cls-4,.cls-5,.cls-6,.cls-66,.cls-67,.cls-7,.cls-8,.cls-9{stroke-miterlimit:10;}.cls-2{font-size:77.1px;}.cls-3{letter-spacing:-0.02em;}.cls-4,.cls-5,.cls-6,.cls-66,.cls-67,.cls-7,.cls-8,.cls-9{stroke:#000;stroke-width:0.25px;}.cls-5{fill:#f7931e;}.cls-6{fill:#f49527;}.cls-7{fill:#f59524;}.cls-8{fill:#f59422;}.cls-9{fill:#f5921f;}.cls-10{fill:#fef7cf;}.cls-11{fill:#e89a3c;}.cls-12{fill:#f4d49d;}.cls-13{fill:#fce4b5;}.cls-14{fill:#f8e8c1;}.cls-15{fill:#faebc8;}.cls-16{fill:#f7d79d;}.cls-17{fill:#f3d69e;}.cls-18{fill:#fae2ae;}.cls-19{fill:#fce5af;}.cls-20{fill:#fbe4b3;}.cls-21{fill:#f5e1b2;}.cls-22{fill:#fceabc;}.cls-23{fill:#f6d7a2;}.cls-24{fill:#f5d5a2;}.cls-25{fill:#fbe9c2;}.cls-26{fill:#f8e0b3;}.cls-27{fill:#fae5b3;}.cls-28{fill:#f9e5b6;}.cls-29{fill:#f4daad;}.cls-30{fill:#fae8bc;}.cls-31{fill:#e89d45;}.cls-32{fill:#faefcc;}.cls-33{fill:#f3e1b1;}.cls-34{fill:#e29942;}.cls-35{fill:#f8daa0;}.cls-36{fill:#fedf9a;}.cls-37{fill:#f9e4b8;}.cls-38{fill:#f2d4ab;}.cls-39{fill:#f9ecc3;}.cls-40{fill:#faeaca;}.cls-41{fill:#f2e2bf;}.cls-42{fill:#f2deb8;}.cls-43{fill:#f6ecce;}.cls-44{fill:#fbd3a2;}.cls-45{fill:#fef6c4;}.cls-46{fill:#fbf0d9;}.cls-47{fill:#fbd49e;}.cls-48{fill:#fad4a2;}.cls-49{fill:#fcd7a7;}.cls-50{fill:#f2e0be;}.cls-51{fill:#f1dcb0;}.cls-52{fill:#fef3c0;}.cls-53{fill:#dda35e;}.cls-54{fill:#d08f47;}.cls-55{fill:#cd8e46;}.cls-56{fill:#fbe0a5;}.cls-57{fill:#e8983b;}.cls-58{fill:#ee8f22;}.cls-59{fill:#ec9023;}.cls-60{fill:#e89538;}.cls-61{fill:#e99836;}.cls-62{fill:#ee9129;}.cls-63{fill:#ed8f2f;}.cls-65,.cls-66{font-size:53px;font-family:Iceland-Regular, Iceland;letter-spacing:0.18em;}.cls-66{fill:#93c;}.cls-67{font-size:33.53px;fill:#f60;font-family:StoneAgeBT-Regular, StoneAge BT;}</style></defs><title>homestore</title><text class="cls-1" transform="translate(95.9 114.98) scale(0.93 0.91)">I</text><text class="cls-2" transform="translate(134.63 114.55) scale(0.93 0.9)"><tspan class="cls-3">S</tspan><tspan x="48.45" y="0">ALE</tspan></text><path class="cls-4" d="M288.42,256.68c-2.29,1.91-3.61,1.21-5.12-.45a93.19,93.19,0,0,0-7.35-7.39c-1.85-1.63-1.47-2.52.11-4.1q33.38-33.19,66.59-66.56c1.74-1.75,2.64-2,4.58,0C359,190.2,371,202.05,382.86,214c.68.67,1.46,1.24,2.88,2.44,0-2.69,0-4.74,0-6.78-.05-1.56.59-2.34,2.2-2.2.25,0,.5,0,.75,0,4.23.2,9.64-1.73,12.36.68s.76,8,.93,12.22c.13,3.24,0,6.49-.11,9.73a5.68,5.68,0,0,0,1.86,4.65c3.5,3.32,6.8,6.85,10.28,10.2,1.49,1.43,2,2.61.08,4a27.31,27.31,0,0,0-2.19,2c-2.5,2.34-4.62,6.84-7.47,6.56s-5-4.3-7.5-6.73C385,239,373.48,226.93,361.31,215.46c-5-4.74-9.77-9.8-14.45-14.89-1.57-1.71-2.13-1.48-3.67.06-13,13-26.1,25.88-39.15,38.81a9.33,9.33,0,0,0-3.09,7.22c.19,15.12.24,30.24,0,45.36-.07,4,1.19,4.72,4.84,4.71q147.9-.14,295.79-.08c9.41,0,9.41,0,9.41,9.22,0,3.5-.23,7,.06,10.5.24,3-.75,3.73-3.71,3.72-28.49-.13-57-.09-85.47-.09q-114.35,0-228.67.09c-3.66,0-4.88-.67-4.83-4.65.24-18.36.1-36.73.09-55.1Z" transform="translate(-274.59 -176.65)"/><path class="cls-5" d="M337.67,267.7c0,6.49-.05,13,0,19.48,0,1.9-.52,2.66-2.53,2.62-5.24-.11-10.49-.09-15.73,0-1.89,0-2.63-.51-2.62-2.53q.1-20,0-40.07c0-1.94.58-2.67,2.54-2.63,5.24.08,10.49.11,15.73,0,2.27-.05,2.65.95,2.62,2.93C337.62,254.22,337.68,261,337.67,267.7Z" transform="translate(-274.59 -176.65)"/><path class="cls-6" d="M362.66,249.48c.16-5.34-1.36-4.58,6.5-5,4.67-.27,3.84,2.59,3.83,5.18,0,5.46,0,5.46-6.24,5.43C362.62,255.05,362.62,255.05,362.66,249.48Z" transform="translate(-274.59 -176.65)"/><path class="cls-7" d="M363.06,256.78a54.28,54.28,0,0,0,6-.13c3.18-.4,4,.86,3.94,4-.2,7.54.91,6.45-6.58,6.58l-3,0C361.22,265,361.05,260.15,363.06,256.78Z" transform="translate(-274.59 -176.65)"/><path class="cls-8" d="M360.07,267.23c-2.1,0-4.2-.16-6.29,0-2.32.15-3.29-.6-3.39-3.08-.28-7.36-.38-7.36,7-7.42,1,0,2,.06,3,.1C361.82,260.32,362.22,263.81,360.07,267.23Z" transform="translate(-274.59 -176.65)"/><path class="cls-9" d="M360.49,249.7c-1.13,1.39,2.25,5.19-2.44,5.23-7.66.06-7.66,0-7.64-5.78,0-4.6,0-4.25,6.66-4.68C361.75,244.16,360.45,247,360.49,249.7Z" transform="translate(-274.59 -176.65)"/><path class="cls-10" d="M360.07,267.23c.64-3.46.27-7,.28-10.42l2.71,0c-.2,3.49-.77,7,.35,10.44Z" transform="translate(-274.59 -176.65)"/><path class="cls-11" d="M570.35,307.81h1.29c1.35,1.62,1.32,4.41,4.41,4.63.94.07.44,1.41-.39,1.91a3.06,3.06,0,0,1-4-.56c-2.2-1.42-4.69-.38-6.43.33-2.62,1.08-3.26.13-4-1.83,1.1-.77.66-1.93.72-2.95.07-1.21,0-2.42,1.43-3l2.3,0c.69,1.3,4-1,3.22,2.38a4.72,4.72,0,0,1-1.51,1.07c-.62.34-1.71.58-1.36,1.43.44,1.08,1.47.47,2.27.21C569.85,310.67,568.93,308.59,570.35,307.81Z" transform="translate(-274.59 -176.65)"/><path class="cls-12" d="M322.09,307.6c2.05.55,3.1-2.17,5.4-1.48,1.43.42,2.24.68,2.14,2.28-.1,1.36,0,2.74-.14,4.1s-.45,2.59-1.93,2.82-3.19.66-4.16-1.25c1.34-1.29,2.82.67,4.54-1.36-3.06,1.36-3.68-1.12-5.25-2.07C321.82,309.76,321.27,308.81,322.09,307.6Z" transform="translate(-274.59 -176.65)"/><path class="cls-13" d="M334.5,308.18c-.92-1.14-2.1.19-3.28-.45.74-2.08,2.57-1.76,3.89-1.42,2.25.58,1.62,2.73,1.69,4.36,0,.8.63,1.88-1.23,2-1.69.08-3.4.91-4.77-.62-.93-1,.09-1.84.81-2.43S333.81,309.25,334.5,308.18Z" transform="translate(-274.59 -176.65)"/><path class="cls-14" d="M571.67,313.8c1.41-.32,3.05,1.58,4.51-.88-4.4.71-4.85-1.9-4.54-5.1,1.54-2.5,3.83-1.88,5.78-1,1.11.5.25,7.3-1,7.93C574.73,315.61,572.77,316.49,571.67,313.8Z" transform="translate(-274.59 -176.65)"/><path class="cls-15" d="M379.66,307.81c1.55-2.46,3.86-1.78,5.81-1,1.06.41.21,7.27-1,7.9-1.74.94-3.66,1.83-4.8-.9a1.44,1.44,0,0,1,1.69-.2c-.18-.51-.77-.51-1.09-.85C378.92,311.25,378.42,309.65,379.66,307.81Z" transform="translate(-274.59 -176.65)"/><path class="cls-16" d="M402.08,310.55c.94,2.1,2.46-.21,3.72.67-.31,1.89-1.72,2.11-3.19,1.8a3.18,3.18,0,0,1-2.68-3.52c.08-1.57.54-3,2.39-3.27a3.44,3.44,0,0,1,3.87,1.53c.76,1.25.07,1.8-1,2.2S403,309.61,402.08,310.55Z" transform="translate(-274.59 -176.65)"/><path class="cls-17" d="M592,310.72c-1.2.19-.85,2.19-2.48,2a6.14,6.14,0,0,1-.49-.85c-.49-1.3.79-3.7-1.11-3.86-2.33-.19-.82,2.3-1.36,3.49-.25.56-.38,1.31-1.16,1.09a1.42,1.42,0,0,1-.77-1.12c.15-1.68-.95-4,.68-4.91,2.44-1.42,4.69.05,6.57,1.83A1.6,1.6,0,0,1,592,310.72Z" transform="translate(-274.59 -176.65)"/><path class="cls-18" d="M445.75,310.74c.74,1.93-.95,2.06-1.95,2.23a3.11,3.11,0,0,1-3.55-2,13.8,13.8,0,0,1-.49-3.2l0,0c1.34-.71,2.42-2.1,4.22-1.62,2.12.56,3.39,1.51,1.69,3.79a2.07,2.07,0,0,1-1.31.68C444.81,310.8,445.29,310.51,445.75,310.74Z" transform="translate(-274.59 -176.65)"/><path class="cls-19" d="M592,310.72l-.12-2.33c.66-1,1.08-2.13,2.66-2.21,1.88-.09,3.43.63,3.61,2.32.16,1.53-1.62,1.44-2.82,1.54-.46,0-.92.16-1.44.26.84,2.48,2.59.18,3.78.8C595.42,313.94,594.39,313.85,592,310.72Z" transform="translate(-274.59 -176.65)"/><path class="cls-20" d="M474.13,310.93c-1,2.37-2.74,2.65-4.81,1.49s-1.34-3.08-.94-4.64c.48-1.84,2.26-1.72,3.73-1.5,2.11.31,2.44,1.78,1.94,3.6-.3.71-1,.55-1.56.7C473,310.69,473.72,310.2,474.13,310.93Z" transform="translate(-274.59 -176.65)"/><path class="cls-21" d="M448.51,303.33c.25,2.15,1.19,3,3.35,3.05s2.22,2.14,2,3.72-1.24,3.09-3.25,2.79c-1.53-.22-3.58.11-3.3-2.68a64.29,64.29,0,0,0,0-6.66Z" transform="translate(-274.59 -176.65)"/><path class="cls-22" d="M516.17,312.38l-.7-1.5a2.14,2.14,0,0,1,0-2.95l.75-.13c.72.58.84,1.74,2.12,2.27,0-1.71-1.61-1.48-2.15-2.24,1-3.15,3.41-1,5.12-1.41,2.32,2.87.81,5.5-.52,8.14-1.36,1.31-3,.85-4.59.72-.58-.45-1.26-1.56-.41-1.55C518.82,313.79,516.18,312.83,516.17,312.38Z" transform="translate(-274.59 -176.65)"/><path class="cls-23" d="M439.76,307.8a15.53,15.53,0,0,0-1.25,1.79c-.47.94-.16,2.52-1.58,2.65s-1.15-1.71-2.18-2.45l-1.84,3.78c-.75-2.86-2.42-4.59-2.43-7,2.38-.41,1.17,2.2,2.52,2.58,1.27-.38.33-2.21,1.88-2.63l1.84,2.38c1.71,0,.75-2.81,2.67-2.34.21.05.24.86.35,1.31Z" transform="translate(-274.59 -176.65)"/><path class="cls-24" d="M343.15,313.73c-.52-1.38-.65-1.71-.77-2-.45-1.28.85-3.59-1.18-3.73s-1,2.1-1.3,3.31c-.15.64-.33,1.36-1,1.32a1.17,1.17,0,0,1-1-1.38c.25-1.62-1-3.82.94-4.74,1.33-.63,3.55-1,4.62.25C345,308.53,344.59,310.8,343.15,313.73Z" transform="translate(-274.59 -176.65)"/><path class="cls-25" d="M523.83,306.39c1.51,0,3.49-1.08,4.3.83.64,1.49,1.1,3.75-.21,4.9a4.4,4.4,0,0,1-5.52,0c-.1-.06-.27-.1-.29-.19C521.47,309.7,524.4,308.59,523.83,306.39Z" transform="translate(-274.59 -176.65)"/><path class="cls-26" d="M502.17,311.23c-.83-1.83-4.8-1-3.46-4,.81-1.8,2.92-1.15,4.6-.59-.09,1.81-1.77.59-2.2,1.48.56,1.52,5.34,1,2.28,4.15-1.58,1.63-3.6,1-5.09-.88C499.66,310,500.87,312.56,502.17,311.23Z" transform="translate(-274.59 -176.65)"/><path class="cls-27" d="M454.59,311.24c1.73-.73,2.77,1.22,3.93-.07-.66-1.72-4.55-1-3.52-3.77.83-2.29,3-1,4.84-1-.46,2.47-2.38.2-3,1.57.81,1.6,4,.44,3.83,3.14-.05,1.06-1,1.37-1.78,1.68C457.18,313.46,455.88,312.77,454.59,311.24Z" transform="translate(-274.59 -176.65)"/><path class="cls-28" d="M515.51,307.93c0,1,0,2,0,2.95-.88-.15-1.22.5-1.78,1-1.42,1.34-3.17,1.69-4.63.18a3.52,3.52,0,0,1-.13-5.08,3.15,3.15,0,0,1,4.63.05A2.53,2.53,0,0,0,515.51,307.93Z" transform="translate(-274.59 -176.65)"/><path class="cls-29" d="M535.43,313c-2.19-1.61.32-5-2.54-5.08s-.47,3.22-2.46,5c-1-2.21-1.17-4.46-.11-6.1.79-1.23,3.31-1.18,4.43-.34C536.91,308.1,535.87,310.52,535.43,313Z" transform="translate(-274.59 -176.65)"/><path class="cls-30" d="M322.09,307.6l.6,3c-2.37,3-4.72,3.2-6.05.63-.85-1.65-.68-3.5.6-4.45A3.14,3.14,0,0,1,322.09,307.6Z" transform="translate(-274.59 -176.65)"/><path class="cls-31" d="M379.66,307.81c-.21,3.15.27,5.71,4.55,4.95-1.19,2.94-3,.75-4.49,1-1.87-1.39-4.18,1.18-6-.64.58-1,1.69-1.14,2.55-1.7,1.59-.7.62-2.93,2.17-3.65Z" transform="translate(-274.59 -176.65)"/><path class="cls-32" d="M398.64,313.07c-2-1.91.15-5-2.37-5.25-3.43-.33-.24,3.78-2.79,4.73-.53-2-1-4.16.13-5.85.62-1,2.75-.88,3.8-.17C399.63,308,398.7,310.39,398.64,313.07Z" transform="translate(-274.59 -176.65)"/><path class="cls-33" d="M464.44,306.21c.33-.86.29-1.95,1.51-2.38,2,2.57-.52,5.77,1.15,8.35,0,.08-.36.63-.61.69a1.08,1.08,0,0,1-1.32-1c-.3-1.57-.51-3.15-.75-4.72A.58.58,0,0,1,464.44,306.21Z" transform="translate(-274.59 -176.65)"/><path class="cls-34" d="M523.83,306.39c-.2.57-1.05,1.53.51,1.22.91-.18,1.94-.52,2.18.51.32,1.34-1,1.09-1.79,1.17-1.77.17-2.22,1.32-2.33,2.81a2.83,2.83,0,0,1-1.57,2.46,29.26,29.26,0,0,0,.53-8.14Z" transform="translate(-274.59 -176.65)"/><path class="cls-35" d="M376.79,312.24l-3.08.92-2.22-.84,0,0c.55-2.88,2.86-3.35,5.2-3.8A2.76,2.76,0,0,1,376.79,312.24Z" transform="translate(-274.59 -176.65)"/><path class="cls-36" d="M464.44,306.21c0,.32,0,.65,0,1-1,.52-.74,1.46-.81,2.3-.11,1.17.4,3.19-1.09,3.1-1.77-.11-.76-2.18-1-3.39C461.16,306.93,462.27,306,464.44,306.21Z" transform="translate(-274.59 -176.65)"/><path class="cls-37" d="M310.17,309.18c1,.08,2,.16,2.14,1.53.09,1.05-.52,1.52-1.38,1.93-1.85.87-3.24.27-4.59-1.09.76-1.21,2.73.52,2.89-1.45C309.12,309.36,309.37,309,310.17,309.18Z" transform="translate(-274.59 -176.65)"/><path class="cls-38" d="M310.17,309.18l-.94.92c-1.36-.43-3.57-.58-2.56-2.63,1.1-2.21,3.28-1.33,4.85-.92C312.67,308.71,308.14,306.59,310.17,309.18Z" transform="translate(-274.59 -176.65)"/><path class="cls-39" d="M563.43,306.36a7.21,7.21,0,0,0-.56,5.35c.16.87.07.89-1.59.59.31-2.67-1.15-5.47.39-8.1C563.16,304.36,562.41,306,563.43,306.36Z" transform="translate(-274.59 -176.65)"/><path class="cls-40" d="M371.49,312.32a1.07,1.07,0,0,1-2-.31c-.18-2.56-1.14-5.23.23-8.08,2.86,2.67-.57,6.11,1.8,8.43Z" transform="translate(-274.59 -176.65)"/><path class="cls-41" d="M388,312.6a14.06,14.06,0,0,1,0-9A14.13,14.13,0,0,1,388,312.6Z" transform="translate(-274.59 -176.65)"/><path class="cls-42" d="M579.87,312.51a14.73,14.73,0,0,1,0-8.84A12.68,12.68,0,0,1,579.87,312.51Z" transform="translate(-274.59 -176.65)"/><path class="cls-43" d="M376.79,312.24l-.06-3.68c-.57-2.18-2.27-.53-3.35-1.24,1.75-1.07,3.49-2.16,5.05.48C377.53,309.15,379.89,311.71,376.79,312.24Z" transform="translate(-274.59 -176.65)"/><path class="cls-44" d="M559.39,305.36c-.34,1.46-.58,2.45-2.14,2.32a1.71,1.71,0,0,1-1.66-2,2.08,2.08,0,0,1,2.09-1.94C558.26,303.81,559.36,304.58,559.39,305.36Z" transform="translate(-274.59 -176.65)"/><path class="cls-45" d="M313.87,303.76a10.47,10.47,0,0,1,0,8.71Z" transform="translate(-274.59 -176.65)"/><path class="cls-46" d="M570.35,307.81c-.93,1.34,1.6,3.9-1.57,4.45-1.14-1.21-.95-2.45,0-3.69-.13-1.71-1.18-1.44-2.3-1.08-1.88.61-1-.47-.7-1.17C567.34,306.58,569.48,305.23,570.35,307.81Z" transform="translate(-274.59 -176.65)"/><path class="cls-23" d="M427.72,307.62c-1.54.21-1.57-1-1.63-1.92a1.71,1.71,0,1,1,3.39.12C429.3,306.76,429.19,307.91,427.72,307.62Z" transform="translate(-274.59 -176.65)"/><path class="cls-47" d="M367.43,305.58c-.44.93-.37,2.09-1.8,2.13s-1.71-.9-1.82-1.88a1.93,1.93,0,0,1,1.86-2.11C366.25,303.7,366.87,305,367.43,305.58Z" transform="translate(-274.59 -176.65)"/><path class="cls-48" d="M305.45,305.73c-.46.52-.42,1.81-2,1.81-1.23,0-1.55-.37-1.56-1.41,0-1.47,1.15-2,2.2-2.41C304.23,303.66,305,305,305.45,305.73Z" transform="translate(-274.59 -176.65)"/><path class="cls-49" d="M495.35,307.4c-1.34.47-1.45-.33-1.54-1.29a2,2,0,0,1,1.82-2.27c.43-.08,1.56,1.07,1.53,1.61C497.1,306.33,497,307.82,495.35,307.4Z" transform="translate(-274.59 -176.65)"/><path class="cls-50" d="M390.85,306.51c1.11,2,1,4.05.33,6.75C389.54,310.69,390.22,308.58,390.85,306.51Z" transform="translate(-274.59 -176.65)"/><path class="cls-51" d="M582.77,313.57a12.11,12.11,0,0,1-.19-7.05C584.23,308.4,583.88,310.4,582.77,313.57Z" transform="translate(-274.59 -176.65)"/><path class="cls-52" d="M506.11,312.37c-.79-2.78-1.16-5.57.17-8.39A19.48,19.48,0,0,1,506.11,312.37Z" transform="translate(-274.59 -176.65)"/><path class="cls-53" d="M516.17,312.38a6.55,6.55,0,0,0,3.77.37c-.7,1.85-1.66,1.78-3.13,1.31s-.7.64-.57,1.22C513,314.39,515.66,313.36,516.17,312.38Z" transform="translate(-274.59 -176.65)"/><path class="cls-54" d="M474.13,310.93c-1.34-.25-2.83,1.65-4.32-.39,1.45-.86,2.91-.46,4.24-.66C474.08,310.23,474.11,310.58,474.13,310.93Z" transform="translate(-274.59 -176.65)"/><path class="cls-55" d="M445.75,310.74c-1.3.37-2.65,1.82-4.23-.74h4.13C445.68,310.24,445.72,310.49,445.75,310.74Z" transform="translate(-274.59 -176.65)"/><path class="cls-56" d="M568.73,308.57c0,1.23,0,2.46,0,3.69-.89.41-1.75,1-2.81.57-.79-.32-1.7-.59-1.67-1.7a1.77,1.77,0,0,1,1.56-1.79C566.83,309.12,567.78,308.83,568.73,308.57Z" transform="translate(-274.59 -176.65)"/><path class="cls-57" d="M326.09,307.52c1.18.12,1.63,1,1.79,2a1.53,1.53,0,0,1-1.31,1.88,1.79,1.79,0,0,1-2.05-1.64A2.09,2.09,0,0,1,326.09,307.52Z" transform="translate(-274.59 -176.65)"/><path class="cls-58" d="M576.17,309.32a1.81,1.81,0,0,1-1.59,2.16c-1.35.21-1.67-.87-1.65-1.87s.2-2.14,1.5-2.12A1.6,1.6,0,0,1,576.17,309.32Z" transform="translate(-274.59 -176.65)"/><path class="cls-59" d="M382.31,307.44c1.57.24,2,1,1.91,2.12s-.57,1.92-1.71,1.95c-1.39,0-1.36-1.11-1.4-2.08S381.49,307.59,382.31,307.44Z" transform="translate(-274.59 -176.65)"/><path class="cls-60" d="M452.43,309.56c-.2,1-.47,2.05-1.68,2a1.82,1.82,0,0,1-1.79-1.94,2,2,0,0,1,2-2.17C452.1,307.43,452.4,308.49,452.43,309.56Z" transform="translate(-274.59 -176.65)"/><path class="cls-61" d="M516.23,307.83c.48-.08,1-.15,1.44-.24,1.52-.31,2,.66,2.19,1.86a1.72,1.72,0,0,1-1.19,2.07c-1.26.26-2.07-.59-2.28-1.87-.1-.61-.09-1.23-.13-1.85Z" transform="translate(-274.59 -176.65)"/><path class="cls-62" d="M511.2,311.56a2,2,0,0,1-1.63-2.11,1.65,1.65,0,0,1,1.75-1.93,1.78,1.78,0,0,1,1.86,2.2C513,310.91,512.27,311.36,511.2,311.56Z" transform="translate(-274.59 -176.65)"/><path class="cls-63" d="M319.5,307.47c1.06.22,1.76.69,1.74,1.95s-.7,2.12-2,2.07-1.59-1-1.52-2.09A1.8,1.8,0,0,1,319.5,307.47Z" transform="translate(-274.59 -176.65)"/><rect class="cls-64" x="13.88" y="118.64" width="324.19" height="40.16"/><text class="cls-65" transform="translate(23.63 150.6)">Homestore</text><text class="cls-66" transform="translate(20.83 150.6)">Homestore</text><text class="cls-67" transform="translate(14.28 184.32) scale(0.57 0.91)">One stop shop for all home products</text></svg>